<svg width="16" height="16" viewBox="0 0 16 16" fill="none" xmlns="http://www.w3.org/2000/svg">
<g clip-path="url(#clip0)">
<path d="M5.23433 9.5459H1.01534C0.730398 9.5459 0.5 9.77657 0.5 10.0611C0.5 10.3457 0.730398 10.5764 1.01534 10.5764H5.23433C5.51905 10.5764 5.74954 10.3457 5.74954 10.0611C5.74954 9.77657 5.51905 9.5459 5.23433 9.5459Z" fill="white"/>
<path d="M5.74946 7.48438H2.56108C2.27627 7.48438 2.04578 7.71511 2.04578 7.99972C2.04578 8.28426 2.27627 8.51499 2.56108 8.51499H5.74943C6.03431 8.51499 6.2648 8.28426 6.2648 7.99972C6.26483 7.71508 6.03434 7.48438 5.74946 7.48438Z" fill="white"/>
<path d="M6.78063 5.93862C6.78063 5.65411 6.55017 5.42334 6.26532 5.42334H4.10753C3.82259 5.42334 3.59216 5.65411 3.59216 5.93862C3.59216 6.22322 3.82259 6.45396 4.10753 6.45396H6.26532C6.55014 6.45399 6.78063 6.22325 6.78063 5.93862Z" fill="white"/>
<path d="M15.2355 4.57388C15.026 4.32885 14.7212 4.18848 14.3985 4.18848H8.49068C7.94466 4.18848 7.48723 4.57995 7.40213 5.11992L6.55479 10.5407C6.50555 10.8587 6.59711 11.1813 6.80632 11.4258C7.01577 11.6709 7.32061 11.8113 7.64334 11.8113H13.5512C14.0972 11.8113 14.5545 11.4198 14.6397 10.8798L15.487 5.45913C15.5362 5.14105 15.4448 4.81845 15.2355 4.57388ZM13.6211 10.7203C13.6156 10.7552 13.5863 10.7807 13.5512 10.7807H7.64334C7.62264 10.7807 7.60303 10.7714 7.58944 10.7559C7.57592 10.7402 7.57035 10.7191 7.5734 10.6989L8.42077 5.2794C8.42631 5.24441 8.45554 5.219 8.49071 5.219H10.395L10.1474 6.55239C10.1286 6.65301 10.1554 6.75689 10.2211 6.83567C10.2867 6.9147 10.3838 6.96018 10.4864 6.96018H11.6847C11.8508 6.96018 11.9936 6.84174 12.0238 6.67845L12.2951 5.21906H14.3985C14.4192 5.21906 14.4388 5.22843 14.4524 5.24376C14.4659 5.25965 14.4714 5.28078 14.4684 5.30086L13.6211 10.7203Z" fill="white"/>
</g>
<defs>
<clipPath id="clip0">
<rect width="15" height="15" fill="white" transform="translate(0.5 0.5)"/>
</clipPath>
</defs>
</svg>
