<svg xmlns="http://www.w3.org/2000/svg" width="80" height="80" fill="none" viewBox="0 0 80 80">
    <path fill="#5EA9FC" d="M30.77 22.735l.065.084c-.579.41-1.075.927-1.463 1.52-.515.784-1.217 1.428-2.042 1.873-.825.446-1.748.68-2.685.68-.175 0-.35 0-.525-.025-.934-.09-1.877.055-2.742.421-.864.367-1.624.943-2.21 1.678-.584.734-.977 1.603-1.141 2.528-.165.925-.096 1.876.2 2.767.321.975.37 2.018.142 3.019-.228 1-.724 1.92-1.436 2.66-.65.675-1.124 1.502-1.375 2.406-.252.904-.274 1.857-.066 2.772.21.915.642 1.763 1.261 2.469.62.705 1.404 1.245 2.284 1.571.964.357 1.813.969 2.455 1.772.642.803 1.053 1.766 1.188 2.785.1.783.365 1.537.777 2.21.412.674.962 1.253 1.615 1.699-.117.058-.233.122-.347.19-.803.486-1.714.764-2.651.809-.938.044-1.872-.145-2.717-.552-.846-.407-1.576-1.019-2.126-1.78-.55-.76-.901-1.646-1.022-2.576-.135-1.018-.544-1.98-1.184-2.783-.64-.803-1.488-1.416-2.45-1.774-.88-.326-1.665-.866-2.284-1.571-.618-.706-1.052-1.554-1.26-2.47-.21-.914-.187-1.867.065-2.77.251-.905.724-1.732 1.376-2.407.71-.74 1.207-1.66 1.435-2.66.228-1 .18-2.044-.141-3.02-.296-.89-.366-1.841-.201-2.766.164-.925.557-1.794 1.142-2.528.585-.735 1.345-1.311 2.21-1.678.864-.366 1.807-.511 2.741-.421.175.016.35.026.524.026.938-.001 1.861-.235 2.686-.68.825-.446 1.527-1.09 2.042-1.873.409-.625.937-1.163 1.555-1.583.617-.42 1.312-.713 2.043-.864.732-.15 1.486-.154 2.219-.012.733.142 1.43.428 2.053.84l-.01.014z"/>
    <path fill="#E8F3FF" d="M44.283 56.595c-.854 1.016-2.035 1.703-3.34 1.942-1.351.251-2.748-.006-3.922-.722-.879-.528-1.886-.808-2.912-.808s-2.033.28-2.912.808c-.878.534-1.885.816-2.912.816-1.156.001-2.285-.35-3.236-1.007-.648-.448-1.194-1.027-1.602-1.7-.409-.675-.67-1.427-.767-2.209-.134-1.018-.544-1.98-1.184-2.782-.64-.803-1.487-1.416-2.45-1.774-.88-.326-1.664-.866-2.283-1.572-.619-.705-1.052-1.554-1.261-2.468-.209-.915-.186-1.868.065-2.772.252-.904.725-1.731 1.376-2.407.711-.74 1.207-1.659 1.435-2.66.229-1 .18-2.044-.14-3.019-.297-.89-.366-1.842-.202-2.766.165-.925.557-1.794 1.142-2.528.586-.735 1.345-1.311 2.21-1.678s1.807-.511 2.742-.421c.175.016.35.026.524.026.938-.002 1.86-.235 2.686-.681.825-.446 1.526-1.089 2.042-1.873.719-1.093 1.794-1.904 3.044-2.295 1.25-.39 2.595-.336 3.81.153.99.397 1.845 1.07 2.462 1.942.048.064.093.133.139.2.563.859 1.348 1.547 2.273 1.993.925.445 1.953.63 2.975.535.181-.017.363-.026.54-.026.893.003 1.772.217 2.566.625.794.407 1.48.997 2.002 1.72.522.724.866 1.561 1.003 2.443.137.882.063 1.784-.215 2.631-.32.975-.368 2.019-.14 3.02.228 1 .724 1.92 1.434 2.66.652.675 1.124 1.502 1.376 2.406.252.904.274 1.857.065 2.772-.208.914-.642 1.763-1.26 2.468-.62.706-1.404 1.246-2.284 1.572-.962.358-1.81.97-2.45 1.774-.64.802-1.05 1.764-1.184 2.782-.135 1.06-.57 2.06-1.255 2.88zm6.549-11.91c.143-.6.132-1.227-.033-1.821-.165-.594-.477-1.137-.909-1.578-.958-.992-1.626-2.228-1.933-3.574-.307-1.345-.24-2.749.193-4.059.181-.556.23-1.147.14-1.726-.09-.578-.316-1.127-.658-1.601-.342-.475-.791-.862-1.312-1.13-.52-.268-1.096-.41-1.681-.413-.12 0-.24.007-.36.02-.236.02-.472.032-.705.032-1.26.002-2.5-.31-3.61-.91-1.108-.599-2.05-1.465-2.739-2.52-.338-.515-.799-.937-1.34-1.23-.542-.292-1.149-.445-1.764-.445-.616 0-1.223.153-1.765.445-.541.293-1.002.715-1.34 1.23-.69 1.055-1.63 1.922-2.74 2.52-1.108.6-2.349.912-3.609.91-.233 0-.47 0-.702-.032-.12-.013-.241-.02-.363-.02-.585.003-1.161.145-1.681.413s-.97.655-1.312 1.13c-.343.474-.568 1.023-.658 1.601-.09.579-.041 1.17.14 1.726.432 1.31.498 2.714.19 4.06-.307 1.345-.976 2.58-1.934 3.573-.425.445-.734.988-.899 1.58-.164.594-.178 1.218-.04 1.819.136.6.42 1.156.825 1.619.406.463.92.818 1.496 1.033 1.294.48 2.432 1.305 3.292 2.383.86 1.08 1.41 2.372 1.591 3.74.12.894.56 1.714 1.238 2.309.678.595 1.549.924 2.45.927.672-.001 1.33-.187 1.903-.538 1.182-.71 2.535-1.087 3.914-1.087 1.38 0 2.733.376 3.914 1.087.573.351 1.231.537 1.903.538.902-.003 1.773-.332 2.452-.927.678-.595 1.119-1.415 1.24-2.31.18-1.367.728-2.66 1.588-3.739.86-1.079 1.998-1.902 3.291-2.383.581-.209 1.1-.562 1.506-1.026.407-.464.69-1.024.821-1.627z"/>
    <path fill="#fff" d="M49.878 41.285c.425.444.734.988.899 1.58.164.594.178 1.218.04 1.818-.136.6-.42 1.157-.825 1.62-.406.463-.92.818-1.496 1.033-1.294.48-2.431 1.304-3.291 2.383-.86 1.079-1.41 2.372-1.589 3.74-.12.894-.561 1.714-1.24 2.309-.679.594-1.55.923-2.452.926-.671 0-1.33-.186-1.902-.537-1.182-.711-2.535-1.087-3.914-1.087-1.38 0-2.732.376-3.914 1.087-.573.35-1.231.537-1.903.537-.902-.003-1.772-.332-2.45-.927-.678-.594-1.118-1.415-1.239-2.309-.18-1.367-.73-2.66-1.59-3.739-.86-1.078-1.999-1.902-3.292-2.383-.577-.215-1.09-.57-1.496-1.033-.405-.463-.69-1.02-.826-1.62-.137-.6-.123-1.224.041-1.817s.473-1.137.899-1.58c.96-.993 1.63-2.228 1.94-3.573.309-1.346.244-2.75-.186-4.061-.182-.556-.23-1.147-.14-1.725.09-.578.314-1.127.656-1.601.342-.475.791-.862 1.31-1.13.52-.269 1.097-.41 1.681-.414.122 0 .242.006.363.02.233.019.469.032.702.032 1.26.002 2.5-.31 3.61-.91 1.108-.598 2.05-1.465 2.739-2.52.338-.515.799-.938 1.34-1.23.542-.292 1.149-.445 1.764-.445.616 0 1.223.153 1.764.445.542.293 1.003.715 1.341 1.23.69 1.055 1.63 1.921 2.74 2.52 1.108.599 2.349.912 3.609.91.233 0 .47 0 .705-.033.12-.012.24-.019.36-.019.585.003 1.161.144 1.681.412s.97.656 1.312 1.13c.343.475.568 1.024.658 1.602.09.578.041 1.17-.14 1.726-.435 1.31-.503 2.712-.198 4.058.305 1.345.972 2.581 1.929 3.575zm-4.951-5.552c.007-.053-.006-.106-.038-.148-.031-.043-.078-.071-.13-.079l-.123-.02c-2.59-.346-6.414.392-10.006 2.385-2.05 1.12-3.915 2.55-5.527 4.24l-.22.232c-.396-.357-.774-.735-1.132-1.132-.395-.414-1.556-1.809-1.618-1.864l-.1-.11c-.018-.02-.039-.035-.063-.046-.024-.01-.05-.016-.076-.016-.026 0-.05.005-.074.014-.024.01-.045.023-.064.041-.018.018-.032.04-.042.063-.01.023-.015.048-.014.073.004.761.081 1.52.23 2.266.074.375.168.744.277 1.11.113.366.247.726.402 1.077.304.712.7 1.382 1.174 1.993.486.627 1.08 1.16 1.754 1.576l.288.175.236-.262s.288-.324.389-.43c2-2.131 4.185-4.08 6.53-5.825 1.864-1.426 3.8-2.757 5.798-3.987.744-.456 1.346-.796 2.032-1.165.032-.015.059-.038.079-.066.02-.028.033-.06.038-.095z"/>
    <path fill="#EBF4FF" d="M44.283 56.594c.684-.82 1.12-1.82 1.255-2.88.135-1.018.544-1.98 1.184-2.782.64-.803 1.488-1.416 2.45-1.774.88-.326 1.665-.866 2.284-1.572.618-.705 1.052-1.554 1.26-2.468.21-.915.187-1.868-.065-2.772-.252-.904-.724-1.731-1.376-2.407-.71-.74-1.206-1.66-1.434-2.66-.228-1-.18-2.044.14-3.019.278-.847.352-1.75.215-2.631-.137-.882-.48-1.719-1.003-2.442-.522-.724-1.208-1.314-2.002-1.722-.794-.407-1.673-.621-2.565-.624-.178 0-.36 0-.54.026-1.023.095-2.051-.09-2.976-.535-.924-.446-1.71-1.134-2.273-1.993-.046-.068-.09-.136-.14-.2-.616-.871-1.471-1.545-2.462-1.942h30.187c1.244 0 2.437.494 3.316 1.374.88.879 1.373 2.071 1.373 3.315v14.843c0 2.207-.435 4.392-1.28 6.431-.844 2.04-2.082 3.892-3.642 5.453-1.561 1.56-3.414 2.799-5.453 3.643-2.04.845-4.225 1.28-6.432 1.28h-13.36c1.304-.24 2.485-.926 3.339-1.942z"/>
    <path fill="#0076FB" stroke="#000" stroke-miterlimit="10" d="M26.146 39.347c.048.055 1.21 1.45 1.618 1.864.358.397.736.775 1.132 1.132l.22-.233c1.612-1.69 3.477-3.12 5.527-4.239 3.592-1.993 7.443-2.73 10.005-2.384l.123.019c.053.008.1.036.131.079.032.042.045.095.038.148-.006.03-.018.059-.036.084-.018.025-.041.046-.068.061-.686.369-1.294.709-2.032 1.165-2.003 1.229-3.943 2.558-5.812 3.983-2.344 1.745-4.53 3.694-6.53 5.825-.1.107-.388.43-.388.43l-.236.262-.288-.175c-.675-.415-1.269-.949-1.754-1.575-.475-.612-.87-1.282-1.174-1.994-.155-.35-.289-.71-.402-1.077-.11-.366-.203-.735-.278-1.11-.148-.746-.225-1.505-.23-2.265 0-.025.005-.05.015-.074.01-.023.024-.045.042-.062.018-.018.04-.032.063-.041.024-.01.05-.014.074-.014.027 0 .053.005.077.015.024.011.045.027.063.047l.1.129z"/>
    <g style="mix-blend-mode:multiply">
        <path fill="#EFEAEF" d="M29.152 53.714c-.135-1.018-.544-1.98-1.184-2.783-.64-.803-1.487-1.416-2.45-1.773-.88-.327-1.665-.867-2.283-1.572-.62-.706-1.053-1.554-1.261-2.47-.209-.914-.187-1.867.065-2.77.252-.905.724-1.732 1.376-2.407.71-.74 1.207-1.66 1.435-2.66.228-1 .18-2.044-.14-3.02-.297-.89-.366-1.841-.202-2.766.164-.925.557-1.794 1.142-2.528.585-.735 1.345-1.311 2.21-1.678.864-.366 1.807-.511 2.742-.421.174.016.349.026.524.026.937-.001 1.86-.235 2.685-.68.825-.446 1.527-1.09 2.042-1.873.388-.594.884-1.11 1.463-1.521l.029-.02c-.345-.243-.718-.445-1.11-.601-1.213-.495-2.56-.552-3.812-.16-1.25.39-2.326 1.204-3.041 2.302-.516.783-1.217 1.427-2.042 1.872-.825.446-1.748.68-2.686.68-.175 0-.35 0-.524-.025-.935-.09-1.877.055-2.742.421-.865.367-1.624.944-2.21 1.678-.585.734-.977 1.603-1.142 2.528-.164.925-.095 1.876.201 2.767.32.975.37 2.018.141 3.019-.228 1-.724 1.92-1.435 2.66-.651.675-1.124 1.502-1.376 2.406-.251.904-.274 1.857-.065 2.772.209.915.642 1.763 1.26 2.469.62.705 1.404 1.245 2.284 1.572.963.357 1.81.97 2.45 1.773.64.803 1.05 1.765 1.184 2.783.1.783.365 1.537.777 2.21.412.674.962 1.253 1.614 1.699.951.657 2.08 1.008 3.236 1.006 1.027 0 2.035-.282 2.913-.816.113-.068.23-.132.346-.19-.657-.444-1.211-1.021-1.627-1.695-.417-.674-.685-1.429-.787-2.214zM40.578 57.004c-1.026.001-2.033.28-2.913.809-.106.065-.213.123-.323.178 1.104.58 2.372.772 3.598.543.79-.146 1.541-.457 2.204-.912-.795-.406-1.674-.618-2.566-.618z"/>
    </g>
    <path fill="#EFEAEF" d="M47.519 56.594c.684-.82 1.12-1.82 1.255-2.88.135-1.018.544-1.98 1.184-2.782.64-.803 1.487-1.416 2.45-1.774.88-.326 1.665-.866 2.283-1.572.62-.705 1.053-1.554 1.261-2.468.209-.915.187-1.868-.065-2.772-.252-.904-.724-1.731-1.376-2.407-.71-.74-1.206-1.66-1.434-2.66-.228-1-.18-2.044.14-3.019.278-.847.352-1.75.215-2.631-.137-.882-.48-1.719-1.003-2.442-.522-.724-1.208-1.314-2.002-1.722-.794-.407-1.673-.621-2.565-.624-.178 0-.36 0-.54.026-1.023.095-2.051-.09-2.976-.535-.925-.446-1.71-1.134-2.273-1.993-.046-.068-.09-.136-.14-.2-.616-.871-1.471-1.545-2.462-1.942h-3.236c.991.397 1.846 1.07 2.463 1.942.048.064.093.132.139.2.563.859 1.349 1.547 2.273 1.993.925.445 1.953.63 2.975.535.182-.017.363-.026.54-.026.893.003 1.772.217 2.566.624.794.408 1.48.998 2.002 1.722.523.723.866 1.56 1.003 2.442.137.882.063 1.784-.215 2.631-.32.975-.368 2.019-.14 3.02.228 1 .724 1.92 1.434 2.66.652.675 1.125 1.502 1.376 2.406.252.904.274 1.857.065 2.772-.208.914-.642 1.763-1.26 2.468-.62.706-1.404 1.246-2.284 1.572-.962.358-1.81.97-2.45 1.774-.64.802-1.05 1.764-1.184 2.782-.135 1.06-.57 2.06-1.255 2.88-.854 1.016-2.035 1.703-3.34 1.942h3.236c1.305-.24 2.486-.926 3.34-1.942z"/>
    <path stroke="#000" stroke-miterlimit="10" d="M25.068 57.623c-.116.059-.233.123-.346.191-.803.485-1.714.763-2.65.807-.938.044-1.871-.146-2.716-.553-.845-.407-1.576-1.018-2.125-1.778-.55-.76-.9-1.645-1.022-2.575-.135-1.018-.544-1.98-1.184-2.783-.64-.803-1.488-1.416-2.45-1.774-.88-.326-1.665-.866-2.284-1.571-.618-.706-1.052-1.554-1.26-2.47-.21-.914-.187-1.867.065-2.77.251-.905.724-1.732 1.376-2.407.71-.74 1.207-1.66 1.435-2.66.228-1 .18-2.044-.141-3.02-.296-.89-.366-1.841-.201-2.766.164-.925.557-1.794 1.142-2.528.585-.735 1.345-1.311 2.21-1.678.864-.366 1.807-.511 2.741-.421.175.016.35.026.524.026.938-.001 1.861-.235 2.686-.68.825-.446 1.527-1.09 2.042-1.873.409-.625.937-1.163 1.555-1.583.617-.42 1.312-.713 2.043-.864.732-.15 1.486-.154 2.219-.012.733.142 1.43.428 2.053.84M12.834 41.12c1.268-1.996 1.745-4.393 1.34-6.723"/>
    <path stroke="#000" stroke-miterlimit="10" d="M12.325 45.52c-.274-.104-.518-.275-.71-.496-.193-.221-.327-.487-.392-.773-.064-.287-.056-.584.024-.867.08-.282.227-.54.431-.751M54.304 56.594c3.94-.005 7.719-1.573 10.506-4.36 2.786-2.786 4.354-6.565 4.36-10.506M44.28 56.594h5.517M57.624 24.139H38.688M69.17 26.886c-.001-.728-.29-1.427-.806-1.942-.515-.515-1.213-.804-1.942-.805"/>
    <path stroke="#000" stroke-miterlimit="10" d="M40.943 58.536h13.361c2.207 0 4.393-.435 6.432-1.28 2.039-.844 3.892-2.082 5.453-3.643 1.56-1.56 2.798-3.413 3.643-5.453.844-2.039 1.28-4.224 1.28-6.431V26.886c0-1.244-.495-2.436-1.374-3.315-.88-.88-2.072-1.374-3.316-1.374H36.235"/>
    <path stroke="#000" stroke-miterlimit="10" d="M38.698 24.14c.048.064.093.133.139.2.563.859 1.348 1.547 2.273 1.993.925.445 1.953.63 2.975.535.181-.017.363-.026.54-.026.893.003 1.772.217 2.566.625.794.407 1.48.997 2.002 1.72.522.724.866 1.561 1.003 2.443.137.882.063 1.784-.215 2.631-.32.975-.368 2.019-.14 3.02.228 1 .724 1.92 1.434 2.66.652.675 1.124 1.502 1.376 2.406.252.904.274 1.857.065 2.772-.208.914-.642 1.763-1.26 2.468-.62.706-1.404 1.246-2.284 1.572-.962.358-1.81.97-2.45 1.774-.64.802-1.05 1.764-1.184 2.782-.135 1.06-.57 2.06-1.255 2.88-.854 1.016-2.035 1.703-3.34 1.942-1.351.251-2.748-.006-3.922-.722-.879-.528-1.886-.808-2.912-.808s-2.033.28-2.912.808c-.878.534-1.885.816-2.912.816-1.156.001-2.285-.35-3.236-1.007-.648-.448-1.194-1.027-1.602-1.7-.409-.675-.67-1.427-.767-2.209-.134-1.018-.544-1.98-1.184-2.782-.64-.803-1.487-1.416-2.45-1.774-.88-.326-1.664-.866-2.283-1.572-.619-.705-1.052-1.554-1.261-2.468-.209-.915-.186-1.868.065-2.772.252-.904.725-1.731 1.376-2.407.711-.74 1.207-1.659 1.435-2.66.229-1 .18-2.044-.14-3.019-.297-.89-.366-1.842-.202-2.766.165-.925.557-1.794 1.142-2.528.586-.735 1.345-1.311 2.21-1.678s1.807-.511 2.742-.421c.175.016.35.026.524.026.938-.002 1.86-.235 2.686-.681.825-.446 1.526-1.089 2.042-1.873.719-1.093 1.794-1.904 3.044-2.295 1.25-.39 2.595-.336 3.81.153.99.397 1.845 1.07 2.462 1.942v0z"/>
    <path stroke="#000" stroke-miterlimit="10" d="M39.924 56.688c-.671 0-1.33-.187-1.902-.537-1.182-.712-2.535-1.088-3.914-1.088-1.38 0-2.732.376-3.914 1.088-.573.35-1.231.536-1.903.537-.902-.003-1.772-.332-2.45-.927-.678-.595-1.118-1.415-1.239-2.309-.18-1.368-.73-2.66-1.59-3.74-.86-1.078-1.999-1.902-3.292-2.382-.577-.215-1.09-.57-1.496-1.034-.405-.463-.69-1.02-.826-1.62-.137-.6-.123-1.224.041-1.817s.473-1.136.899-1.58c.959-.992 1.628-2.226 1.938-3.57.308-1.344.245-2.747-.184-4.057-.182-.556-.23-1.147-.14-1.725.09-.578.314-1.127.656-1.601.342-.475.791-.862 1.31-1.13.52-.269 1.097-.41 1.681-.414.122 0 .242.006.363.02.233.019.469.032.702.032 1.26.002 2.5-.31 3.61-.91 1.108-.598 2.05-1.465 2.739-2.52.338-.515.799-.938 1.34-1.23.542-.292 1.149-.445 1.764-.445.616 0 1.223.153 1.764.445.542.293 1.003.715 1.341 1.23.69 1.055 1.63 1.921 2.74 2.52 1.108.599 2.349.912 3.609.91.233 0 .47 0 .705-.033.12-.012.24-.019.36-.019.585.003 1.161.144 1.681.412s.97.656 1.312 1.13c.343.475.568 1.024.658 1.602.09.578.041 1.17-.14 1.726-.433 1.31-.5 2.714-.193 4.06.307 1.344.975 2.58 1.933 3.573.426.444.735.988.9 1.58.163.594.178 1.218.04 1.818-.136.6-.42 1.157-.826 1.62-.405.463-.919.818-1.495 1.033-1.294.48-2.432 1.304-3.292 2.383-.86 1.079-1.409 2.372-1.588 3.74-.123.894-.565 1.714-1.246 2.308-.68.593-1.553.92-2.456.92z"/>
    <path stroke="#000" stroke-miterlimit="10" d="M36.232 27.342c.894 1.076 2.015 1.941 3.282 2.535 1.266.593 2.648.9 4.047.898M21.926 33.048c-.086-.265-.109-.546-.067-.82.043-.275.15-.536.311-.763.162-.226.375-.41.621-.54.247-.128.52-.197.798-.2h.182c.294.025.592.042.883.042M20.923 41.12c1.269-1.996 1.746-4.393 1.34-6.723M20.415 45.52c-.274-.104-.519-.275-.71-.496-.193-.221-.328-.487-.392-.773-.064-.287-.056-.584.023-.867.08-.282.228-.54.432-.751M29.194 54.488c-.27.169-.584.259-.903.259-.43-.002-.845-.16-1.17-.443-.323-.283-.534-.674-.593-1.1-.092-.681-.256-1.35-.489-1.997M34.11 53.123c-1.733 0-3.432.472-4.916 1.366M47.82 45.518c-1.625.601-3.054 1.635-4.135 2.99-1.08 1.354-1.77 2.977-1.994 4.695M43.561 30.776c.295 0 .59-.016.883-.042h.182c.278.003.552.072.799.2.247.129.46.314.622.54.163.226.27.488.312.763.042.275.02.556-.067.82"/>
</svg>
