<svg xmlns="http://www.w3.org/2000/svg" width="80" height="80" fill="none" viewBox="0 0 80 80">
    <path fill="#5EA9FC" d="M14.603 53.659h-2.446c-.867-.001-1.698-.346-2.311-.96-.613-.613-.957-1.445-.957-2.312V39.282c0-.965.383-1.891 1.066-2.573.682-.683 1.608-1.066 2.573-1.066h2.075v18.016z"/>
    <path fill="#5EA9FC" d="M14.348 35.643c.173-1.714.724-3.367 1.613-4.843.888-1.475 2.093-2.736 3.526-3.69-2.09 2.228-3.252 5.17-3.248 8.227l-.422.306h-1.47z"/>
    <path fill="#5EA9FC" d="M23.228 57.281h-6.377c-.337 0-.67-.066-.98-.195-.312-.129-.594-.318-.832-.556-.238-.238-.427-.521-.555-.832-.129-.311-.194-.645-.194-.981v-1.058h1.116c.888 0 1.74-.354 2.367-.982.628-.628.982-1.48.983-2.368V36.742c0-.292-.116-.571-.322-.777-.206-.206-.486-.322-.777-.322h-1.411c-.14 0-.28 0-.419.024v-.024l.422-.306c-.007-3.055 1.151-5.997 3.238-8.228 1.912-1.28 4.161-1.961 6.462-1.959h5.738v.017c-2.976.173-5.774 1.476-7.82 3.644-2.047 2.167-3.188 5.035-3.19 8.016v17.89c0 .678.267 1.329.746 1.81.478.48 1.127.752 1.805.754zM62.903 53.659h-6.245c2.078-2.17 3.234-5.06 3.228-8.065v-9.951h5.268c-.44 0-.876.086-1.282.255-.407.168-.777.416-1.088.727-.31.312-.558.681-.726 1.088-.168.407-.254.843-.254 1.283V52.56c0 .291.116.57.322.777.206.206.485.322.777.322z"/>
    <path fill="#EBF4FF" d="M17.569 53.66h-2.446c-.867 0-1.698-.345-2.311-.958s-.957-1.444-.957-2.31V39.285c0-.478.094-.95.277-1.392.183-.442.45-.843.789-1.181.337-.338.739-.606 1.18-.789.442-.183.915-.277 1.393-.277h2.075c.316 0 .62.126.844.35.224.224.35.527.35.844v15.635c0 .317-.127.62-.35.844-.224.224-.528.35-.845.35v-.01z"/>
    <path fill="#fff" d="M51.213 55.285h-6.802c-.583 0-1.148.198-1.605.56-.456.363-.776.87-.909 1.437-.044.19-.065.386-.064.582v.768c0 .15.06.293.166.398.106.106.249.166.398.167H49.2c.669.005 1.314-.25 1.799-.712.484-.46.771-1.092.8-1.76v-.875c-.001-.076-.017-.15-.047-.22s-.073-.133-.127-.186c-.055-.052-.12-.093-.19-.12-.07-.028-.146-.04-.222-.039zM71.137 41.878v5.547c0 .36-.144.707-.399.962s-.6.398-.962.398h-2.125v-8.258h2.125c.36 0 .704.142.959.395s.4.597.402.956z"/>
    <path fill="#EBF4FF" d="M64.31 53.658h-1.407c-.292 0-.571-.116-.777-.322-.206-.206-.322-.485-.322-.776V36.94c0-.343.137-.673.38-.916s.572-.38.916-.38h1.214c.889 0 1.74.354 2.37.982.627.628.98 1.48.98 2.369v11.309c0 .888-.353 1.74-.98 2.369-.63.628-1.481.98-2.37.98l-.003.004zM52.75 56.364c-.316.136-.642.255-.969.36v-.874c0-.074-.016-.148-.044-.217-.03-.069-.072-.13-.125-.183-.053-.053-.116-.094-.185-.122-.069-.029-.143-.043-.217-.042h-6.803c-.582 0-1.148.197-1.604.56-.457.362-.777.869-.91 1.436H23.229c-.336 0-.67-.066-.98-.195-.312-.129-.594-.318-.832-.556-.238-.238-.426-.521-.555-.832-.128-.311-.194-.645-.194-.981v-17.89c0-1.535.302-3.054.888-4.472.587-1.418 1.448-2.706 2.533-3.79 1.085-1.085 2.373-1.946 3.79-2.533 1.418-.587 2.938-.889 4.472-.889h24.961c.68.001 1.332.272 1.813.753.48.48.75 1.132.752 1.812v17.88c0 .29-.01.576-.03.857 0 .208-.035.412-.062.616 0 .095-.024.183-.037.272-.028.177-.055.34-.092.52-.038.18-.051.252-.078.374-.028.123-.065.276-.102.408-.004.02-.01.04-.017.058-.03.116-.064.23-.103.34.002.016.002.032 0 .048-.034.116-.071.229-.112.34 0 .038-.024.072-.037.102-.034.095-.068.194-.11.286-.04.092-.084.224-.132.34l-.095.221c-.024.051-.044.102-.071.15-.028.047-.075.156-.113.23-.074.16-.16.32-.245.474-.05.095-.104.19-.163.285l-.2.34c-.285.45-.601.88-.946 1.286-.075.089-.15.177-.231.265l-.072.082c-.088.092-.173.187-.262.276-.278.285-.57.554-.874.809l-.313.252c-.088.068-.176.136-.268.2-.092.065-.252.184-.381.272l-.29.188-.078.05-.261.154c-.157.095-.313.183-.473.265l-.252.13c-.014.008-.028.015-.044.02-.174.095-.388.183-.582.265zM27.442 46.35c.041.099.089.197.136.296l.16.32c.055.105.16.302.242.448.081.147.166.293.255.443.088.15.136.214.204.32.068.105.105.166.163.25.252.376.524.738.813 1.086.105.133.214.258.34.384.126.126.228.252.34.374.112.123.235.242.357.36l.368.341c.248.228.506.449.775.656l.415.313c.136.099.269.19.408.283.14.091.282.19.425.279.143.088.29.18.436.261.146.085.296.17.449.245.153.075.299.157.455.232.157.074.27.125.405.187l.116.05c.136.062.279.12.418.174.16.065.32.126.483.184l.49.16c.166.054.34.102.503.146.163.044.34.088.504.126.163.037.34.078.517.109.176.03.34.064.52.091.18.028.34.051.527.068.187.017.34.038.534.051.194.014.398.028.599.035h.979c.388 0 .772-.045 1.146-.089.123 0 .245-.027.364-.048.12-.02.34-.047.487-.074l.228-.045.238-.047c.078 0 .15-.03.224-.051.177-.041.34-.082.524-.13l.31-.088c.302-.092.602-.19.894-.3.088-.03.173-.064.255-.098.221-.085.442-.18.66-.279.095-.04.187-.085.279-.132.207-.096.411-.201.612-.31.092-.047.18-.099.272-.153.446-.256.879-.535 1.296-.837.126-.095.252-.187.374-.285l.214-.17.34-.29.031-.027.34-.316c.255-.235.5-.483.742-.742.102-.105.204-.22.299-.34.184-.21.34-.421.52-.639.044-.054.089-.109.13-.167.04-.058.027-.034.04-.054.075-.099.147-.2.218-.303.072-.102.126-.184.187-.279.061-.095.092-.129.133-.197.085-.133.166-.269.248-.401.082-.133.146-.252.218-.381.071-.13.16-.293.231-.439.071-.146.15-.296.218-.445.991-2.141 1.43-4.497 1.274-6.85-.156-2.355-.9-4.632-2.165-6.623-1.265-1.992-3.01-3.634-5.075-4.775-2.065-1.141-4.383-1.745-6.742-1.757-2.36-.012-4.684.569-6.76 1.689-2.076 1.12-3.838 2.744-5.123 4.723-1.285 1.978-2.053 4.248-2.232 6.6-.18 2.353.235 4.713 1.205 6.863l.01.014z"/>
    <path fill="#5EA9FC" d="M41.23 55.285h3.194c-.684 0-1.34.272-1.823.755-.483.484-.755 1.14-.755 1.823v.769c0 .15.06.292.166.398.106.106.25.166.399.166h-3.197c-.15 0-.293-.06-.399-.166-.105-.106-.165-.249-.166-.398v-.769c0-.339.067-.674.197-.987.13-.313.32-.597.56-.837.239-.24.524-.43.837-.559.313-.129.649-.195.987-.195z"/>
    <path fill="#fff" d="M40.282 26.459c2.365.002 4.692.599 6.765 1.736 2.074 1.137 3.828 2.778 5.101 4.77 1.273 1.994 2.024 4.276 2.183 6.635.16 2.36-.278 4.722-1.27 6.868-.069.15-.14.296-.219.446-.078.15-.153.295-.23.438-.08.143-.144.256-.218.381-.075.126-.164.269-.249.402-.04.068-.088.132-.132.197-.045.065-.123.187-.188.279-.064.092-.142.204-.217.303 0 .02-.03.037-.041.054-.01.017-.085.112-.13.167-.166.217-.34.428-.52.639-.098.116-.197.228-.299.34-.241.259-.486.507-.741.742l-.34.316-.031.027-.34.29-.214.17-.375.285c-.417.301-.85.58-1.295.837l-.273.153c-.2.108-.404.214-.612.31-.092.047-.183.088-.279.132-.217.099-.438.194-.66.279-.084.034-.166.068-.255.098-.292.11-.591.208-.894.3l-.31.088c-.173.048-.34.089-.523.13-.075.02-.15.037-.225.05l-.238.048-.228.044c-.16.027-.34.055-.486.075-.146.02-.242.037-.364.048-.374.044-.759.075-1.146.088h-.98c-.2 0-.398 0-.598-.034-.201-.034-.358-.027-.534-.051-.177-.024-.34-.04-.528-.068-.187-.027-.34-.054-.52-.092-.18-.037-.34-.064-.517-.109-.177-.044-.34-.078-.503-.126-.164-.047-.34-.091-.504-.146l-.49-.16c-.163-.057-.34-.119-.482-.183-.14-.055-.283-.113-.419-.174l-.115-.05c-.136-.062-.272-.12-.405-.188s-.306-.15-.456-.231c-.15-.082-.303-.16-.449-.245l-.435-.262c-.143-.088-.286-.184-.425-.279-.14-.095-.273-.187-.409-.282l-.415-.313c-.265-.21-.523-.428-.775-.656l-.367-.34c-.123-.12-.238-.239-.357-.361-.12-.123-.232-.248-.34-.374-.11-.126-.222-.252-.34-.384-.29-.348-.561-.71-.813-1.085-.058-.085-.113-.167-.164-.252-.05-.085-.14-.214-.204-.32-.064-.105-.173-.292-.255-.442-.081-.15-.163-.296-.241-.449-.079-.153-.106-.214-.16-.32-.055-.105-.092-.197-.136-.296-.967-2.145-1.381-4.498-1.205-6.845.177-2.346.938-4.611 2.215-6.588 1.277-1.977 3.028-3.603 5.094-4.729 2.067-1.126 4.382-1.716 6.735-1.717l-.01-.014z"/>
    <path fill="#99C8FD" d="M61.805 24.756v2.333c0-.507-.098-1.01-.291-1.48-.193-.468-.477-.895-.836-1.254-.358-.36-.783-.644-1.252-.839-.469-.194-.971-.294-1.478-.294l-29.638.044c-3.198.001-6.265 1.272-8.526 3.534-2.261 2.261-3.531 5.329-3.531 8.527V32.99c0-3.198 1.27-6.265 3.531-8.526 2.261-2.26 5.328-3.531 8.526-3.531l29.638-.044c.507 0 1.009.1 1.477.295.469.195.894.48 1.253.839.358.36.642.785.835 1.254.193.47.293.972.292 1.479z"/>
    <path fill="#EFEAEF" d="M27.064 54.717V45.41c-1.184-3.22-1.154-6.762.086-9.962.338-2.839 1.706-5.455 3.844-7.353 2.138-1.898 4.898-2.946 7.757-2.946h-6.39c-1.535 0-3.053.302-4.47.888-1.418.587-2.706 1.447-3.79 2.53-1.085 1.085-1.946 2.372-2.534 3.79-.587 1.416-.89 2.935-.89 4.469v17.89c0 .336.066.67.194.98.129.312.317.595.555.833.238.238.52.427.831.556.311.129.645.195.981.195h6.391c-.337 0-.67-.065-.982-.194-.311-.129-.594-.318-.832-.556-.239-.238-.428-.521-.556-.832-.129-.312-.195-.645-.195-.982zM15.045 50.387V39.282c.001-.84.292-1.654.824-2.304.532-.65 1.271-1.096 2.094-1.264-.128-.045-.262-.069-.398-.071h-2.074c-.966 0-1.891.383-2.574 1.066-.682.682-1.066 1.608-1.066 2.573v11.105c0 .867.345 1.699.958 2.312.612.614 1.444.959 2.311.96h2.445c.096-.002.19-.015.283-.038-.778-.112-1.49-.5-2.005-1.095-.514-.594-.798-1.353-.798-2.14zM64.995 52.557V36.938c0-.207.051-.411.147-.595s.234-.343.404-.462c-.393-.156-.812-.237-1.235-.238h-1.214c-.344 0-.673.137-.916.38-.242.243-.38.572-.38.915v15.619c0 .292.116.572.323.779.206.206.487.323.779.323h1.408c.391 0 .78-.07 1.146-.208-.142-.101-.26-.235-.34-.391-.08-.156-.122-.328-.122-.503zM45.04 58.632v-.769c0-.195.022-.39.064-.581.132-.568.453-1.074.909-1.437.456-.362 1.022-.56 1.605-.56h-3.194c-.583 0-1.148.198-1.605.56-.456.363-.776.869-.908 1.437-.044.19-.066.386-.065.581v.769c0 .15.06.292.166.398.106.106.25.166.399.166h3.193c-.15 0-.292-.06-.398-.166-.106-.106-.165-.249-.166-.398z"/>
    <path stroke="#000" stroke-miterlimit="10" d="M59.886 35.643h3.901M63.338 53.658h-6.826M47.761 55.285h-6.53c-.684 0-1.34.272-1.823.755-.484.484-.755 1.14-.755 1.823v.769c0 .15.06.293.165.4.106.105.25.165.4.165h6.39M19.487 27.106c1.913-1.277 4.162-1.957 6.462-1.956h5.738M14.348 35.65c.218-2.158 1.034-4.212 2.357-5.931M26.517 57.28h-9.666c-.68 0-1.331-.27-1.812-.752-.48-.48-.751-1.132-.752-1.812v-1.058M69.783 48.775h-2.122v-8.247h2.122c.361 0 .707.143.962.398s.399.601.399.962v5.544c-.005.358-.15.7-.405.951-.254.251-.598.392-.956.392v0z"/>
    <path stroke="#000" stroke-miterlimit="10" d="M69.399 48.775v2.456c-.002 1.593-.636 3.12-1.763 4.245-1.127 1.126-2.654 1.758-4.247 1.758H51.798M24.711 57.282h-1.483c-.68 0-1.332-.27-1.813-.751-.48-.481-.751-1.134-.751-1.814v-17.89c0-1.535.301-3.054.888-4.472.587-1.418 1.448-2.706 2.533-3.791 1.084-1.085 2.373-1.946 3.79-2.534 1.418-.587 2.937-.89 4.472-.89M14.603 53.659h-2.446c-.867-.001-1.698-.346-2.311-.96-.613-.613-.957-1.445-.957-2.312V39.282c0-.965.383-1.891 1.066-2.573.682-.683 1.608-1.066 2.573-1.066h2.075"/>
    <path stroke="#000" stroke-miterlimit="10" d="M10.351 50.387c0 .312.087.618.252.883s.4.478.68.617M11.283 37.568c-.284.184-.518.436-.68.733-.163.297-.25.63-.252.968v2.752M16.253 35.337c0-1.584.31-3.152.916-4.615.606-1.463 1.494-2.793 2.614-3.913 1.12-1.12 2.449-2.008 3.912-2.614 1.463-.606 3.031-.918 4.615-.918l29.638-.045c1.022.001 2.002.408 2.725 1.131.722.724 1.128 1.704 1.128 2.726v8.561"/>
    <path stroke="#000" stroke-miterlimit="10" d="M61.801 33.316v-8.56c0-1.023-.406-2.003-1.128-2.727-.723-.723-1.703-1.13-2.725-1.13l-29.638.044c-3.198 0-6.265 1.27-8.526 3.531S16.253 29.802 16.253 33v2.336M64.31 53.658h-1.407c-.292 0-.571-.116-.777-.322-.206-.206-.322-.485-.322-.776V36.94c0-.343.137-.673.38-.916s.572-.38.916-.38h1.214c.889 0 1.74.354 2.37.982.627.628.98 1.48.98 2.369v11.309c0 .888-.353 1.74-.98 2.369-.63.628-1.481.98-2.37.98l-.003.004z"/>
    <path stroke="#000" stroke-miterlimit="10" d="M66.083 49.037v1.269c0 .465-.186.91-.515 1.24-.329.329-.775.514-1.24.515M64.311 37.242c.465.001.911.186 1.24.515.33.33.514.775.515 1.24M69.783 48.775h-2.122v-8.247h2.122c.361 0 .707.143.962.398s.399.601.399.962v5.544c-.005.358-.15.7-.405.951-.254.251-.598.392-.956.392v0zM17.569 53.66h-2.446c-.867 0-1.698-.345-2.311-.958s-.957-1.444-.957-2.31V39.285c0-.478.094-.95.277-1.392.183-.442.45-.843.789-1.181.337-.338.739-.606 1.18-.789.442-.183.915-.277 1.393-.277h2.075c.316 0 .62.126.844.35.224.224.35.527.35.844v15.635c0 .317-.127.62-.35.844-.224.224-.528.35-.845.35v-.01z"/>
    <path stroke="#000" stroke-miterlimit="10" d="M69.399 48.775v2.456c-.002 1.593-.636 3.12-1.763 4.245-1.127 1.126-2.654 1.758-4.247 1.758H51.798M44.424 55.285h6.803c.15 0 .293.06.399.166.106.105.165.249.165.399v.762c0 .683-.271 1.34-.755 1.823-.483.483-1.14.755-1.823.755h-6.802c-.15 0-.294-.06-.4-.166-.105-.105-.165-.25-.165-.399v-.769c.002-.682.274-1.336.758-1.818.483-.482 1.138-.753 1.82-.753z"/>
    <path stroke="#000" stroke-miterlimit="10" d="M36.956 57.282H23.227c-.68 0-1.332-.27-1.813-.751-.48-.481-.751-1.134-.751-1.814v-17.89c0-1.535.301-3.054.888-4.472.587-1.418 1.448-2.706 2.533-3.791 1.084-1.085 2.373-1.946 3.79-2.534 1.418-.587 2.937-.89 4.472-.89h24.961c.68.002 1.332.272 1.813.753.48.48.75 1.132.752 1.812V45.59c0 2.188-.614 4.333-1.774 6.19-1.16 1.856-2.817 3.349-4.784 4.309"/>
    <path stroke="#000" stroke-miterlimit="10" d="M57.968 29.442v-1.727c0-.172-.068-.336-.19-.457-.12-.122-.285-.19-.456-.19h-1.548M55.148 52.47c.9-.904 1.61-1.977 2.094-3.157.484-1.18.73-2.444.726-3.72M22.592 53.658v1.058c.001.172.07.336.192.457s.286.19.458.19h1.408M29.17 27.602c-2.116.738-3.916 2.179-5.102 4.081M53.043 40.54c-.109-3.31-1.5-6.45-3.88-8.753-2.38-2.304-5.563-3.592-8.875-3.592-3.312 0-6.495 1.288-8.875 3.592-2.38 2.303-3.771 5.442-3.88 8.753M28.524 45.51c.962 2.276 2.565 4.224 4.613 5.607 2.048 1.383 4.453 2.142 6.924 2.184 2.47.042 4.9-.633 6.995-1.945 2.095-1.312 3.763-3.203 4.803-5.445"/>
    <path fill="#000" d="M36.942 30.63l.697 7.128.826-.088-.694-7.129-.83.088zM43.975 32.34l-.184-1.83-.826.098.184 1.817c.015.142-.02.285-.099.404-.084.127-.202.229-.34.293-.144.074-.304.111-.466.109h-.49c-.114.004-.228-.014-.335-.055-.107-.04-.204-.101-.287-.18-.156-.163-.252-.374-.272-.599l-.184-1.887-.827.088.68 7.143.83-.089-.367-3.741h.024c.258.146.548.223.844.224h.37c.318.003.63-.085.902-.251.272-.162.492-.398.636-.68.153-.261.225-.562.207-.864z"/>
    <path stroke="#000" stroke-miterlimit="10" d="M47.819 40.541h2.884M32.745 40.541H29.86M40.282 48.078v2.884"/>
</svg>
