<svg xmlns="http://www.w3.org/2000/svg" width="80" height="80" fill="none" viewBox="0 0 80 80">
    <path fill="#5EA9FC" d="M15.877 54.623c0 .665.132 1.324.387 1.939s.628 1.173 1.099 1.643c.47.47 1.03.843 1.645 1.097s1.274.385 1.94.384h-6.989c-.665 0-1.323-.131-1.937-.386-.615-.254-1.173-.627-1.643-1.097s-.843-1.029-1.098-1.643c-.254-.614-.385-1.273-.385-1.937V38.594c.006-4.811 1.92-9.424 5.322-12.827 3.402-3.402 8.015-5.316 12.827-5.322h6.989c-4.812.006-9.425 1.92-12.828 5.322-3.402 3.403-5.316 8.016-5.322 12.827l-.007 16.029z"/>
    <path fill="#F2F8FF" d="M71.111 25.509v16.028c0 2.383-.47 4.743-1.382 6.945-.912 2.202-2.248 4.203-3.934 5.888-1.685 1.685-3.686 3.022-5.888 3.934-2.202.912-4.562 1.382-6.945 1.382H20.947c-1.342 0-2.63-.534-3.58-1.483-.95-.95-1.483-2.238-1.483-3.58V38.594c.006-4.811 1.92-9.424 5.322-12.827 3.403-3.402 8.016-5.316 12.827-5.322h32.022c1.341.002 2.627.536 3.575 1.486.949.95 1.481 2.236 1.481 3.578z"/>
    <path fill="#000" d="M46.903 40.508c0 .012-.004.024-.01.034-.008.01-.017.018-.028.023-.011.005-.023.006-.035.004-.012-.002-.023-.007-.032-.015-.005-.015-.005-.03 0-.046v-.028h.059s.046.011.046.028z"/>
    <path fill="#E8F3FF" d="M43.496 56.174c8.933 0 16.175-7.242 16.175-16.175s-7.242-16.175-16.175-16.175S27.32 31.066 27.32 40s7.242 16.175 16.175 16.175z"/>
    <path fill="#fff" d="M43.496 52.669c6.997 0 12.67-5.673 12.67-12.67 0-6.998-5.673-12.67-12.67-12.67-6.998 0-12.67 5.672-12.67 12.67 0 6.997 5.672 12.67 12.67 12.67z"/>
    <path fill="#EFEAEF" d="M34.32 39.999c.001-3.057 1.107-6.01 3.114-8.315 2.007-2.305 4.779-3.807 7.806-4.23-.579-.081-1.163-.122-1.747-.122-3.324.055-6.492 1.414-8.823 3.784-2.33 2.37-3.637 5.56-3.637 8.884 0 3.324 1.306 6.515 3.637 8.885 2.33 2.37 5.5 3.729 8.823 3.784.584-.002 1.168-.043 1.747-.122-3.028-.423-5.8-1.925-7.807-4.232-2.007-2.306-3.112-5.26-3.113-8.316z"/>
    <path fill="#EFEAEF" d="M22.866 54.623V38.594c.005-4.811 1.92-9.424 5.322-12.827 3.402-3.402 8.015-5.316 12.827-5.322h-6.989c-4.811.006-9.425 1.92-12.827 5.322-3.402 3.403-5.316 8.016-5.322 12.827v16.029c0 .665.131 1.324.386 1.939s.629 1.173 1.1 1.643c.47.47 1.03.843 1.645 1.097s1.274.385 1.94.384h6.988c-.666 0-1.325-.13-1.94-.384s-1.174-.626-1.645-1.097c-.47-.47-.844-1.028-1.1-1.643-.254-.615-.385-1.274-.385-1.94z"/>
    <path stroke="#000" stroke-miterlimit="10" d="M34.027 20.445h-6.989c-4.812.006-9.425 1.92-12.827 5.322-3.403 3.403-5.317 8.016-5.322 12.827v16.029c0 .665.131 1.324.386 1.939s.628 1.173 1.1 1.643c.47.47 1.03.843 1.644 1.097.615.254 1.275.385 1.94.384h6.989M12.383 39.621v14.84M13.81 32.344c.623-1.32 1.439-2.542 2.42-3.623"/>
    <path stroke="#000" stroke-miterlimit="10" d="M15.877 56.192H14.13c-.463 0-.908-.184-1.235-.511-.328-.328-.512-.772-.512-1.236M22.866 59.686h30.096c4.813 0 9.43-1.912 12.833-5.316 3.404-3.404 5.316-8.02 5.316-12.833V25.509c0-.665-.131-1.324-.386-1.938-.254-.614-.627-1.173-1.097-1.643s-1.028-.843-1.643-1.097c-.614-.255-1.272-.386-1.937-.386H34.026c-4.811.006-9.425 1.92-12.827 5.322-3.402 3.403-5.316 8.016-5.322 12.827v16.029c0 .665.131 1.324.386 1.939s.629 1.173 1.1 1.643c.47.47 1.03.843 1.645 1.097s1.274.385 1.94.384h1.918zM20.797 32.344c1.148-2.41 2.919-4.47 5.13-5.965"/>
    <path stroke="#000" stroke-miterlimit="10" d="M43.493 56.192H21.1c-.463 0-.907-.184-1.235-.511-.328-.328-.512-.772-.512-1.236M66.436 47.139c-1.47 3.443-4.178 6.208-7.59 7.75M65.887 23.828c.464 0 .908.184 1.236.512.327.328.511.772.511 1.235v1.049M26.92 52.696h-1.87c-.287 0-.572-.056-.837-.166-.265-.11-.506-.271-.709-.474-.203-.204-.363-.445-.473-.71-.11-.266-.165-.55-.165-.837V38.691M64.123 36.994v4.343c-.004 2.872-1.094 5.636-3.05 7.737-1.957 2.102-4.636 3.386-7.5 3.595"/>
    <path stroke="#000" stroke-miterlimit="10" d="M31.472 29.192c-2.24 2.488-3.653 5.61-4.043 8.937-.39 3.325.262 6.69 1.865 9.63 1.604 2.94 4.08 5.309 7.088 6.781 3.007 1.473 6.398 1.976 9.703 1.44 3.305-.537 6.362-2.086 8.75-4.434 2.388-2.348 3.988-5.379 4.58-8.675.591-3.296.145-6.694-1.276-9.726-1.422-3.031-3.75-5.547-6.662-7.2"/>
    <path stroke="#000" stroke-miterlimit="10" d="M31.472 35.959c-.64 1.902-.82 3.928-.524 5.913.295 1.985 1.057 3.871 2.224 5.505 1.166 1.633 2.703 2.965 4.485 3.889 1.781.923 3.757 1.411 5.763 1.423 2.007.011 3.988-.453 5.78-1.356 1.792-.903 3.344-2.218 4.53-3.837 1.185-1.62 1.969-3.497 2.287-5.478.319-1.982.162-4.01-.456-5.92"/>
    <path fill="#000" d="M55.562 36.1l-1.276 1.478-.276-4.654 3.526 3.05-1.964.112-.01.014zM51.477 25.945l.13 2.782-4.854-4.56 6.653-.294-1.93 2.044v.028zM48.314 39.974c.168.178.332.35.49.535-.158.178-.322.35-.49.52-.167.172-.349.332-.52.49-.171.157-.322.328-.49.506-.167.178-.349.35-.52.504-.178-.158-.35-.326-.52-.504-.172-.178-.33-.35-.49-.506-.16-.158-.35-.322-.52-.49l-.518-.52c.178-.178.35-.35.518-.535.167-.185.349-.35.52-.503.171-.154.322-.35.49-.52l.52-.521.52.52c.168.168.35.35.49.521.14.171.353.325.52.503zM39.953 28.066l1.9 19.453-1.247.119-1.9-19.453 1.247-.119z"/>
</svg>
