<svg xmlns="http://www.w3.org/2000/svg" width="80" height="80" fill="none" viewBox="0 0 80 80">
    <path fill="#F2F8FF" d="M71.111 25.205v16.477c0 4.948-1.966 9.694-5.465 13.193-3.498 3.498-8.244 5.464-13.192 5.464H21.515s-.718 0-1.487-.04c-.411-.007-.813-.12-1.168-.327-.355-.208-.65-.503-.858-.858-.582-1.038-1.936-1.29-1.936-2.916 0-2.07 2.155-2.07 2.155-4.139 0-2.069-2.155-2.069-2.155-4.138s2.155-2.072 2.155-4.141c0-2.07-2.155-2.07-2.155-4.138 0-2.07 2.155-2.066 2.155-4.135s-2.155-2.069-2.155-4.138c0-1.922 1.857-2.058 2.123-3.725.038-.284.152-.552.33-.776l.09-.108C22.021 22.356 26.986 20 32.977 20h32.918c.685-.001 1.363.132 1.995.393.633.261 1.208.644 1.693 1.128.484.483.868 1.057 1.13 1.69.263.632.398 1.31.398 1.994zM60.769 40.17c0-3.57-1.058-7.06-3.042-10.029-1.983-2.968-4.802-5.281-8.1-6.648-3.299-1.366-6.928-1.723-10.43-1.027-3.5.697-6.717 2.416-9.241 4.94-2.525 2.524-4.244 5.74-4.94 9.242-.697 3.502-.34 7.13 1.027 10.43 1.366 3.297 3.68 6.116 6.648 8.1 2.968 1.983 6.458 3.042 10.028 3.042 2.372.006 4.722-.457 6.915-1.362 2.193-.904 4.185-2.234 5.862-3.911 1.678-1.678 3.007-3.67 3.912-5.863.905-2.192 1.367-4.542 1.361-6.914z"/>
    <path fill="#E8F3FF" d="M56.983 25.913c-3.298-3.299-7.64-5.352-12.282-5.81-4.644-.458-9.302.71-13.181 3.301-3.88 2.592-6.74 6.449-8.095 10.914-1.354 4.464-1.119 9.26.667 13.571 1.785 4.31 5.01 7.869 9.125 10.068 4.115 2.2 8.865 2.904 13.44 1.993 4.577-.91 8.695-3.379 11.655-6.986 2.96-3.606 4.577-8.128 4.577-12.794.003-2.648-.516-5.27-1.53-7.718-1.013-2.446-2.5-4.668-4.376-6.538z"/>
    <path fill="#fff" d="M55.485 27.428c3.224 3.417 4.988 7.956 4.918 12.653-.07 4.697-1.967 9.182-5.29 12.502-3.324 3.32-7.81 5.214-12.508 5.279-4.697.065-9.235-1.704-12.649-4.93l.033-.033 25.464-25.471h.032z"/>
    <path fill="#fff" d="M55.485 27.429l-.032.028-25.464 25.461-.033.032c-1.706-1.67-3.064-3.66-3.995-5.858-.93-2.198-1.417-4.559-1.43-6.946-.012-2.387.449-4.752 1.356-6.96.908-2.208 2.245-4.213 3.933-5.901 1.688-1.688 3.694-3.024 5.902-3.93 2.208-.908 4.574-1.368 6.96-1.355 2.387.014 4.748.5 6.946 1.432 2.197.932 4.188 2.29 5.857 3.997z"/>
    <path fill="#5EA9FC" d="M26.666 20h6.319c-6.003 0-10.967 2.356-14.369 6.76l-.09.108c-.178.224-.292.492-.33.776-.266 1.667-2.123 1.796-2.123 3.725 0 2.069 2.155 2.069 2.155 4.138 0 2.07-2.155 2.07-2.155 4.135s2.155 2.069 2.155 4.138-2.155 2.069-2.155 4.141c0 2.073 2.155 2.07 2.155 4.138 0 2.07-2.155 2.07-2.155 4.139 0 1.627 1.354 1.878 1.936 2.916.208.355.504.65.858.858.355.207.757.32 1.168.328.765.025 1.487.04 1.487.04h-7.184s-.718 0-1.487-.04c-.41-.008-.813-.12-1.168-.328-.354-.208-.65-.503-.858-.858-.582-1.038-1.936-1.29-1.936-2.916 0-2.07 2.155-2.07 2.155-4.139 0-2.069-2.155-2.069-2.155-4.138s2.155-2.072 2.155-4.141c0-2.07-2.155-2.07-2.155-4.138 0-2.07 2.155-2.066 2.155-4.135S8.89 33.438 8.89 31.37c0-1.922 1.857-2.058 2.123-3.725.038-.284.152-.552.33-.776l.09-.108C14.845 22.356 19.81 20 25.8 20h.866z"/>
    <path fill="#EFEAEF" d="M25.186 59.114c-.581-1.038-1.936-1.29-1.936-2.916 0-2.07 2.155-2.07 2.155-4.139 0-2.069-2.155-2.069-2.155-4.138s2.155-2.072 2.155-4.141c0-2.07-2.155-2.07-2.155-4.138 0-2.07 2.155-2.066 2.155-4.135s-2.155-2.069-2.155-4.138c0-1.922 1.857-2.058 2.123-3.725.038-.284.152-.552.33-.776l.09-.108C29.206 22.356 34.17 20 40.162 20h-7.177c-6.003 0-10.967 2.356-14.369 6.76l-.09.108c-.178.224-.292.492-.33.776-.266 1.667-2.123 1.796-2.123 3.725 0 2.069 2.155 2.069 2.155 4.138 0 2.07-2.155 2.07-2.155 4.135s2.155 2.069 2.155 4.138-2.155 2.069-2.155 4.141c0 2.073 2.155 2.07 2.155 4.138 0 2.07-2.155 2.07-2.155 4.139 0 1.627 1.354 1.878 1.936 2.916.208.355.504.65.858.858.355.207.757.32 1.168.328.765.025 1.488.04 1.488.04h7.184s-.719 0-1.488-.04c-.412-.007-.815-.119-1.171-.327-.356-.207-.653-.503-.862-.859z"/>
    <path fill="#EFEAEF" d="M33.549 52.932c-2.416-2.416-4.096-5.468-4.846-8.802-.75-3.333-.538-6.81.61-10.029 1.149-3.217 3.187-6.043 5.878-8.148 2.691-2.106 5.925-3.404 9.324-3.744-.596-.06-1.196-.09-1.796-.09-4.787 0-9.378 1.902-12.763 5.287s-5.287 7.976-5.287 12.763c0 4.788 1.902 9.379 5.287 12.764s7.976 5.287 12.763 5.287c.607 0 1.207-.033 1.796-.09-4.146-.413-8.022-2.25-10.966-5.198z"/>
    <path stroke="#000" stroke-miterlimit="10" d="M32.985 20H25.8c-6.003 0-10.967 2.356-14.369 6.76l-.09.108c-.178.224-.292.492-.33.776-.266 1.667-2.123 1.796-2.123 3.725 0 2.069 2.155 2.069 2.155 4.138 0 2.07-2.155 2.07-2.155 4.135s2.155 2.069 2.155 4.138S8.89 45.849 8.89 47.92c0 2.073 2.155 2.07 2.155 4.138 0 2.07-2.155 2.07-2.155 4.139 0 1.627 1.354 1.878 1.936 2.916.208.355.504.65.858.858.355.207.757.32 1.168.328.765.025 1.487.04 1.487.04h7.184M13.907 27.23c1.167-1.217 2.512-2.249 3.99-3.06M13.907 52.684h2.022"/>
    <path stroke="#000" stroke-miterlimit="10" d="M55.486 27.428c-2.953-2.953-6.838-4.792-10.994-5.202-4.156-.41-8.326.634-11.799 2.953-3.472 2.32-6.033 5.772-7.246 9.768-1.213 3.997-1.002 8.29.596 12.148 1.598 3.859 4.484 7.044 8.167 9.013 3.683 1.968 7.935 2.6 12.03 1.784 4.097-.814 7.784-3.024 10.433-6.253 2.65-3.228 4.097-7.275 4.097-11.452.003-2.37-.463-4.717-1.37-6.906-.906-2.19-2.237-4.179-3.914-5.853v0z"/>
    <path stroke="#000" stroke-miterlimit="10" d="M32.985 20c-6.003 0-10.967 2.356-14.369 6.76l-.09.108c-.178.224-.292.492-.33.776-.266 1.667-2.123 1.796-2.123 3.725 0 2.069 2.155 2.069 2.155 4.138 0 2.07-2.155 2.07-2.155 4.135s2.155 2.069 2.155 4.138-2.155 2.069-2.155 4.141c0 2.073 2.155 2.07 2.155 4.138 0 2.07-2.155 2.07-2.155 4.139 0 1.627 1.354 1.878 1.936 2.916.208.355.504.65.858.858.355.207.757.32 1.168.328.765.025 1.488.04 1.488.04h30.931c4.948 0 9.694-1.967 13.193-5.465 3.499-3.5 5.464-8.245 5.464-13.193V25.205c0-.684-.134-1.36-.396-1.992-.261-.631-.645-1.205-1.128-1.689-.484-.483-1.057-.866-1.689-1.128-.631-.261-1.308-.396-1.992-.396H32.985z"/>
    <path stroke="#000" stroke-miterlimit="10" d="M68.097 46.93c-.791 2.344-2.097 4.481-3.822 6.255s-3.825 3.14-6.146 3.996M65.906 22.156c.809.001 1.584.323 2.155.895.572.571.894 1.346.895 2.155M27.277 23.171c.776-.285 1.572-.512 2.381-.679M21.091 27.23c1.731-1.8 3.845-3.187 6.186-4.058M32.51 58.184H21.092M60.59 27.781h4.052M21.091 52.684h4.045M29.989 52.9l25.464-25.46"/>
    <path fill="#000" d="M31.896 38.97l-.905-.92-.909.92.909.91.905-.91zM56.61 35.845l-.909-.92-.909.92.91.91.908-.91zM45.241 36.632l-.122-3.204-.851.029.158 3.994.815-.82zM58.05 39.028c-.21-.39-.522-.718-.901-.948-.378-.237-.815-.362-1.261-.36-.41-.004-.813.106-1.164.317-.362.226-.686.509-.96.837-.291.345-.669.844-1.13 1.498l-1.078 1.483h-.05c-.135.008-.269-.018-.39-.075-.121-.058-.226-.146-.304-.255-.167-.282-.233-.613-.187-.938l.158-1.77-.833-.072-.158 1.77c-.003.194-.047.384-.131.559-.084.174-.205.328-.354.45-.342.228-.746.343-1.157.331h-1.224c-.318.015-.636-.03-.938-.129-.097-.04-.185-.098-.26-.172-.073-.074-.132-.162-.171-.259-.106-.312-.16-.64-.158-.97v-.115-.13l-.058-1.49-.819.816.026.675c.002.554.096 1.103.276 1.627.127.358.383.655.718.833.44.194.918.282 1.398.259h1.225c.43.003.856-.085 1.25-.259.266-.118.501-.295.69-.517.144.245.352.445.6.582.25.136.53.203.815.194h4.375c.433.004.859-.11 1.232-.33.377-.217.692-.526.916-.898.23-.36.354-.777.36-1.204-.002-.47-.124-.93-.353-1.34zm-.743 2.059c-.15.235-.358.43-.604.564-.248.142-.53.216-.815.215h-3.233l.697-.952c.391-.564.718-.998.948-1.293.21-.276.46-.519.744-.718.253-.168.55-.256.855-.252.22-.007.438.032.642.115.203.083.387.208.54.367.153.162.272.353.351.562.08.21.116.432.108.655-.002.261-.084.516-.233.73v.007z"/>
    <path stroke="#000" stroke-miterlimit="10" d="M29.989 52.9l25.464-25.46"/>
    <path fill="#000" d="M43.147 40.759c-.062.325-.17.64-.32.934-.045.085-.109.159-.187.215-.087.068-.192.108-.302.116-.11.008-.22-.018-.316-.072l-.043-.022-.66.657.244.126c.23.124.493.178.754.155.259-.021.507-.112.718-.263.203-.136.367-.321.478-.538.26-.488.412-1.026.446-1.577.012-.174.012-.348 0-.521l-.812.79zM31.695 46.202l.19-.05c.062-.019.124-.03.187-.037.609-.138 1.199-.35 1.757-.628.44-.232.795-.598 1.013-1.046.25-.57.32-1.203.197-1.814 0-.035 0-.086-.021-.14.295.212.65.321 1.013.313h1.57c.47.009.932-.124 1.325-.38.283-.192.527-.436.719-.72l.359.18.657-.657-.571-.291.718-1.419c.11-.217.267-.407.46-.553.178-.128.389-.203.607-.216.215-.015.43.033.618.137.105.055.202.125.288.208l.578-.578c-.156-.177-.342-.324-.55-.435-.294-.171-.63-.255-.971-.243-.34.013-.67.122-.95.315-.296.194-.536.462-.697.776l-1.053 2.015c-.14.275-.354.505-.618.665-.274.163-.589.248-.909.244h-1.584c-.135.008-.27-.012-.397-.057-.127-.046-.244-.117-.343-.209-.212-.243-.362-.536-.434-.851-.142-.562-.25-1.132-.324-1.706 0-.033 0-.072-.021-.112-.022-.04-.022-.161-.036-.248l-.833.144c-.004.017-.004.034 0 .05.002.017.002.034 0 .05v.037c.323 2.179.508 3.448.556 3.807.093.441.035.9-.165 1.304-.182.308-.458.551-.787.693-.465.189-.945.335-1.436.439l-.162.035c-.052.015-.105.027-.158.036-1.006.24-1.816.168-2.432-.215-.317-.208-.582-.486-.773-.813-.192-.328-.304-.695-.33-1.073-.093-1.073.067-2.154.467-3.154l-.819-.316c-.474 1.205-.63 2.511-.452 3.793.058.484.222.95.481 1.362.26.413.606.764 1.017 1.027.816.508 1.833.618 3.05.33z"/>
</svg>
