<svg xmlns="http://www.w3.org/2000/svg" width="80" height="80" fill="none" viewBox="0 0 80 80">
    <path fill="#1280FB" d="M53.252 56.06c.305.683.756 1.291 1.32 1.782-.605.526-1.325.904-2.102 1.101-.777.198-1.59.21-2.373.038-.784-.174-1.515-.528-2.136-1.035-.622-.507-1.116-1.153-1.442-1.886h6.733z"/>
    <path fill="#C4DFFE" d="M57.939 52.95c.2 0 .395.058.561.17.166.11.296.268.372.453.077.184.097.388.058.584-.04.195-.136.375-.277.517-.141.141-.321.237-.517.276-.196.04-.399.02-.584-.057-.184-.077-.342-.206-.453-.372-.11-.166-.17-.362-.17-.562 0-.268.106-.525.296-.714.19-.19.446-.296.714-.296zM22.395 52.95c.2 0 .395.058.561.17.166.11.296.268.372.453.077.184.097.388.058.584-.04.195-.136.375-.277.517-.141.141-.321.237-.517.276-.196.04-.399.02-.583-.057-.185-.077-.343-.206-.454-.372-.11-.166-.17-.362-.17-.562 0-.268.106-.525.296-.714.19-.19.446-.296.714-.296z"/>
    <path fill="#F7FBFF" d="M57.938 50.428c.7 0 1.383.207 1.965.596.58.388 1.034.94 1.302 1.586.267.646.337 1.357.2 2.043-.136.686-.472 1.316-.967 1.81-.494.495-1.124.832-1.81.968-.686.136-1.396.066-2.042-.201-.646-.268-1.199-.721-1.587-1.302-.389-.582-.596-1.265-.596-1.965 0-.937.373-1.837 1.036-2.5s1.562-1.035 2.5-1.035zm1.01 3.535c0-.2-.059-.395-.17-.56-.11-.167-.268-.297-.453-.373-.185-.076-.388-.096-.584-.057-.196.038-.376.135-.517.276-.141.141-.237.321-.276.517-.04.196-.02.4.057.584.077.184.206.342.372.453.166.111.362.17.561.17.133.002.265-.023.389-.073.123-.05.235-.123.33-.216.095-.094.17-.205.222-.327.052-.123.079-.254.08-.387l-.01-.007zM22.395 50.428c.699 0 1.382.207 1.963.596.582.388 1.035.94 1.303 1.586.267.646.337 1.357.2 2.043-.136.686-.472 1.316-.967 1.81-.494.495-1.124.832-1.81.968-.686.136-1.396.066-2.042-.201-.646-.268-1.199-.721-1.587-1.302-.388-.582-.596-1.265-.596-1.965 0-.937.373-1.837 1.036-2.5s1.562-1.035 2.5-1.035zm1.01 3.535c0-.2-.06-.395-.17-.56-.112-.167-.27-.297-.454-.373-.185-.076-.388-.096-.584-.057-.195.038-.375.135-.517.276-.141.141-.237.321-.276.517-.04.196-.02.4.057.584.077.184.206.342.372.453.166.111.362.17.562.17.132.001.264-.024.387-.074.122-.05.234-.123.329-.217.094-.093.17-.204.22-.326.052-.122.08-.253.08-.386l-.007-.007z"/>
    <path fill="#B0D5FE" d="M62.626 51.878c.454 1.01.568 2.14.327 3.22-.242 1.08-.826 2.054-1.666 2.775-.84.721-1.89 1.151-2.995 1.226-1.104.075-2.203-.21-3.133-.81-.93-.601-1.64-1.487-2.025-2.525-.385-1.038-.424-2.173-.111-3.235.313-1.062.96-1.994 1.846-2.657.887-.664 1.964-1.023 3.07-1.024.992-.006 1.963.278 2.796.816.832.538 1.49 1.308 1.891 2.214zm-1.151 2.091c0-.699-.208-1.383-.596-1.964-.389-.581-.94-1.035-1.587-1.302-.646-.268-1.356-.338-2.042-.201-.686.136-1.316.473-1.81.967-.495.495-.831 1.125-.968 1.81-.136.686-.066 1.397.201 2.043.268.646.721 1.198 1.302 1.587.582.389 1.265.596 1.965.596.937 0 1.836-.373 2.5-1.036.662-.663 1.035-1.562 1.035-2.5zM27.081 51.879c.293.658.445 1.37.445 2.09 0 .721-.152 1.434-.445 2.092-.482 1.068-1.314 1.938-2.36 2.467-1.045.53-2.24.684-3.386.44-1.146-.244-2.174-.873-2.912-1.783-.74-.909-1.145-2.044-1.15-3.215-.001-.721.152-1.434.448-2.091.404-.906 1.062-1.676 1.893-2.216.832-.54 1.802-.827 2.794-.827s1.962.287 2.794.827c.832.54 1.49 1.31 1.893 2.216h-.014zm-1.151 2.09c0-.699-.207-1.382-.596-1.964-.388-.581-.94-1.034-1.586-1.302-.646-.268-1.357-.338-2.043-.201-.686.136-1.316.473-1.81.968-.494.494-.831 1.124-.968 1.81-.136.686-.066 1.397.202 2.043.267.646.72 1.198 1.302 1.586.581.389 1.264.596 1.964.596.937 0 1.837-.372 2.5-1.035.663-.663 1.035-1.563 1.035-2.5z"/>
    <path fill="#1280FB" d="M17.997 56.62c.277.459.625.871 1.03 1.222-.882.766-1.999 1.207-3.166 1.252-1.167.046-2.314-.308-3.253-1.003-.939-.695-1.612-1.689-1.91-2.818-.298-1.13-.202-2.327.272-3.394h1.835c-.516.703-.755 1.573-.669 2.441.086.869.49 1.675 1.135 2.263.644.588 1.483.918 2.356.925.872.006 1.716-.31 2.37-.888z"/>
    <path fill="#1280FB" d="M16.771 51.879h.936c-.296.657-.449 1.37-.447 2.091-.002.934.253 1.851.737 2.65-.653.578-1.498.894-2.37.888-.873-.007-1.712-.337-2.356-.925-.645-.588-1.049-1.394-1.135-2.263-.086-.868.153-1.738.67-2.441h3.966z"/>
    <path fill="#5EA9FC" d="M12.806 51.879h-2.768c-.782 0-1.532-.311-2.086-.864-.553-.554-.863-1.304-.863-2.086v-6.472h6.733v6.472c0 .782.311 1.532.864 2.086.553.553 1.304.864 2.086.864h-3.966zM23.923 30.928v.02c-1.473.105-2.892.6-4.11 1.436-1.219.835-2.193 1.979-2.822 3.315l-3.186 6.758H7.072l3.185-6.758c.673-1.427 1.738-2.633 3.07-3.477 1.332-.845 2.877-1.294 4.455-1.294h6.141zM23.94 30.927c.144-2.63 1.29-5.105 3.204-6.916 1.913-1.812 4.447-2.821 7.081-2.822h6.734c-2.732 0-5.353 1.086-7.285 3.018-1.932 1.933-3.017 4.553-3.017 7.286v-.566h-6.125c-.199 0-.397 0-.593.02v-.02z"/>
    <path fill="#F2F8FF" d="M63.064 53.97c0-.72-.15-1.433-.445-2.091h6.842c.334 0 .655.132.892.367l.222.067c-.965 1.174-2.18 2.119-3.554 2.767-1.374.648-2.876.983-4.395.981.292-.658.441-1.37.438-2.091z"/>
    <path fill="#fff" d="M26.576 30.927v5.694c0 1.545-.614 3.028-1.707 4.121-1.093 1.093-2.575 1.707-4.12 1.707h-6.927l3.185-6.758c.63-1.336 1.604-2.48 2.823-3.315 1.218-.835 2.637-1.33 4.11-1.436.195 0 .394-.02.592-.02l2.044.007z"/>
    <path fill="#F2F8FF" d="M27.081 51.879c-.403-.906-1.06-1.676-1.893-2.216-.831-.54-1.802-.827-2.793-.827-.992 0-1.962.288-2.794.827-.832.54-1.49 1.31-1.893 2.216h-.936c-.782 0-1.533-.311-2.086-.864-.553-.553-.864-1.304-.864-2.086v-6.472h6.926c.766 0 1.524-.15 2.232-.444.707-.294 1.35-.724 1.892-1.265.54-.542.97-1.186 1.262-1.894.293-.708.443-1.466.442-2.232v-5.694h4.08V56.06h-3.575c.293-.658.445-1.37.445-2.091 0-.72-.152-1.433-.445-2.091zM46.519 56.06H30.657V31.48c0-2.733 1.086-5.354 3.018-7.286 1.932-1.933 4.552-3.018 7.285-3.018h29.02c.782 0 1.532.312 2.085.866.553.554.864 1.304.864 2.087v21.614c0 2.393-.833 4.712-2.357 6.556l-.222-.067c-.238-.236-.558-.367-.892-.367h-6.835c-.555-1.243-1.58-2.215-2.851-2.702-1.272-.487-2.684-.449-3.927.106-1.243.554-2.215 1.58-2.702 2.851-.486 1.271-.448 2.684.106 3.927l-6.73.013z"/>
    <path fill="#EFEAEF" d="M20.556 48.929v-6.472l3.185-6.758c.629-1.333 1.6-2.475 2.816-3.31 1.215-.834 2.63-1.33 4.1-1.438v-.023h-6.125c-.198 0-.397 0-.592.02-1.473.105-2.892.6-4.11 1.436-1.219.835-2.193 1.979-2.823 3.315l-3.185 6.758v6.472c0 .782.311 1.533.864 2.086.553.553 1.303.864 2.086.864h.936c.276-.615.67-1.17 1.16-1.632.491-.462 1.068-.823 1.698-1.062-.006-.09-.01-.175-.01-.256zM29.128 48.834c-1.238 0-2.434.449-3.367 1.263.565.49 1.017 1.098 1.323 1.781.293.658.445 1.37.445 2.091 0 .72-.152 1.433-.445 2.091h3.576v-6.98c-.495-.158-1.012-.24-1.532-.246z"/>
    <path fill="#96C7FD" d="M57.942 57.835c-.555-.48-1-1.075-1.306-1.744-.305-.668-.462-1.394-.462-2.128-.001-.721.151-1.434.448-2.091.286-.64.7-1.215 1.217-1.69.516-.474 1.124-.838 1.786-1.068-1.214-.423-2.543-.375-3.723.136-1.18.51-2.125 1.447-2.647 2.622-.297.657-.45 1.37-.448 2.09 0 .82.195 1.627.57 2.355.376.728.92 1.355 1.588 1.83.667.474 1.439.782 2.25.897.81.115 1.637.034 2.41-.236-.618-.212-1.19-.542-1.683-.973z"/>
    <path fill="#EFEAEF" d="M57.576 57.499c-.901-.95-1.404-2.208-1.404-3.517 0-1.309.503-2.568 1.404-3.517-.87.09-1.677.498-2.264 1.148-.586.65-.91 1.494-.91 2.369 0 .875.324 1.72.91 2.369.587.65 1.393 1.059 2.264 1.148zM37.39 51.879V31.493c0-2.732 1.086-5.353 3.019-7.286 1.932-1.932 4.552-3.018 7.285-3.018H40.96c-2.733 0-5.353 1.086-7.285 3.018-1.932 1.933-3.018 4.553-3.018 7.286v24.581h4.714v-4.195h2.02zM69.46 51.879c.335 0 .656.132.893.367l.222.067c.115-.141.226-.286.337-.434H69.46z"/>
    <path fill="#96C7FD" d="M22.395 57.835c-.556-.48-1-1.075-1.306-1.744-.305-.668-.463-1.394-.462-2.128-.002-.721.15-1.434.448-2.091.286-.64.7-1.215 1.216-1.69.517-.474 1.125-.838 1.787-1.068-1.214-.423-2.543-.375-3.723.136-1.18.51-2.125 1.447-2.647 2.622-.297.657-.45 1.37-.448 2.09 0 .82.195 1.627.57 2.355.376.728.92 1.355 1.588 1.83.667.474 1.439.782 2.25.897.81.115 1.637.034 2.41-.236-.619-.212-1.19-.542-1.683-.973z"/>
    <path fill="#EFEAEF" d="M22.027 57.499c-.9-.95-1.403-2.208-1.403-3.517 0-1.309.502-2.568 1.403-3.517-.87.09-1.677.498-2.263 1.148-.586.65-.91 1.494-.91 2.369 0 .875.324 1.72.91 2.369.586.65 1.393 1.059 2.263 1.148z"/>
    <path stroke="#000" stroke-miterlimit="10" d="M23.94 30.927c.144-2.63 1.29-5.105 3.204-6.916 1.913-1.812 4.447-2.821 7.081-2.822h6.734M23.923 30.928H17.8c-1.578 0-3.123.449-4.455 1.294-1.332.844-2.397 2.05-3.07 3.477l-3.185 6.758v6.472c0 .782.31 1.533.863 2.086.554.553 1.304.864 2.086.864h6.734"/>
    <path stroke="#000" stroke-miterlimit="10" d="M12.81 51.875c-.517.703-.756 1.573-.67 2.441.086.869.49 1.675 1.134 2.263.645.588 1.484.918 2.357.925.872.007 1.716-.31 2.37-.888M46.475 55.967c0 .03.027.064.043.094.327.733.821 1.378 1.442 1.885.622.508 1.353.862 2.136 1.035.784.173 1.596.16 2.374-.037.777-.198 1.497-.575 2.102-1.102M7.089 42.457h6.733"/>
    <path stroke="#000" stroke-miterlimit="10" d="M10.97 51.875c-.472 1.067-.567 2.264-.269 3.392.299 1.128.973 2.121 1.91 2.815.94.694 2.086 1.048 3.252 1.003 1.166-.045 2.282-.486 3.164-1.25M35.922 51.875h17.33M46.592 23.209H40.96c-2.196.003-4.302.876-5.854 2.43-1.553 1.552-2.426 3.657-2.43 5.853v20.382h3.247M23.202 33.092c-1.61.353-3.017 1.32-3.926 2.694"/>
    <path stroke="#000" stroke-miterlimit="10" d="M30.657 31.493v-.565h-6.125c-.198 0-.397 0-.592.02-1.473.105-2.892.6-4.11 1.436-1.219.835-2.193 1.979-2.823 3.315l-3.185 6.758v6.472c0 .782.311 1.533.864 2.086.553.553 1.303.864 2.086.864h.936M27.081 51.879h2.135"/>
    <path stroke="#000" stroke-miterlimit="10" d="M27.081 56.06c.275-.616.425-1.28.444-1.953.018-.674-.097-1.345-.338-1.974-.241-.63-.604-1.206-1.067-1.695-.464-.489-1.02-.882-1.635-1.157-.615-.274-1.279-.425-1.952-.443-.674-.018-1.345.096-1.974.337-.63.242-1.205.604-1.694 1.068-.49.463-.883 1.019-1.157 1.634-.297.657-.45 1.37-.448 2.091 0 1.176.403 2.316 1.142 3.23.74.914 1.77 1.547 2.92 1.791 1.15.245 2.35.088 3.397-.445 1.047-.534 1.88-1.41 2.359-2.484"/>
    <path stroke="#000" stroke-miterlimit="10" d="M22.395 57.505c1.952 0 3.535-1.583 3.535-3.536s-1.583-3.535-3.535-3.535c-1.953 0-3.536 1.583-3.536 3.535 0 1.953 1.583 3.536 3.535 3.536z"/>
    <path stroke="#000" stroke-miterlimit="10" d="M21.374 53.97c0 .199.06.394.17.56.111.166.27.296.454.372.184.077.387.097.583.058.196-.04.376-.135.518-.277.14-.14.237-.32.276-.517.039-.196.019-.399-.058-.583-.076-.185-.205-.343-.372-.454-.166-.11-.36-.17-.56-.17-.269 0-.526.106-.715.296-.19.19-.296.446-.296.714v0zM57.938 57.505c1.953 0 3.536-1.583 3.536-3.536s-1.583-3.535-3.535-3.535c-1.953 0-3.536 1.583-3.536 3.535 0 1.953 1.583 3.536 3.535 3.536z"/>
    <path stroke="#000" stroke-miterlimit="10" d="M56.919 53.97c0 .199.059.394.17.56.11.166.269.296.453.372.185.077.388.097.584.058.196-.04.376-.135.517-.277.141-.14.237-.32.276-.517.04-.196.02-.399-.057-.583-.077-.185-.206-.343-.372-.454-.166-.11-.361-.17-.561-.17-.268 0-.525.106-.715.296-.189.19-.295.446-.295.714z"/>
    <path stroke="#000" stroke-miterlimit="10" d="M62.626 51.879c-.517-1.161-1.445-2.09-2.606-2.606-1.16-.517-2.472-.586-3.68-.193-1.208.392-2.229 1.219-2.864 2.319-.635 1.1-.84 2.397-.576 3.64.264 1.243.979 2.344 2.007 3.09 1.028.748 2.296 1.087 3.56.955 1.263-.133 2.432-.73 3.282-1.674.85-.944 1.321-2.17 1.32-3.44.001-.72-.15-1.433-.444-2.091v0zM13.822 42.457h6.926c.766 0 1.524-.15 2.232-.444.707-.294 1.35-.724 1.892-1.265.54-.542.97-1.186 1.262-1.894.293-.708.443-1.466.442-2.232v-5.694M30.657 56.06h-3.579M62.626 51.879h6.835c.334 0 .655.132.892.367M30.657 53.969h12.37M63.07 53.969h3.09M23.438 44.889h3.044"/>
    <path stroke="#000" stroke-miterlimit="10" d="M62.626 56.06c1.353.001 2.693-.265 3.943-.783 1.25-.517 2.386-1.276 3.343-2.233.957-.957 1.716-2.093 2.233-3.344.518-1.25.784-2.59.784-3.943V24.143c0-.783-.31-1.534-.864-2.087-.553-.554-1.303-.866-2.086-.867H40.96c-2.732 0-5.352 1.086-7.284 3.018-1.932 1.933-3.018 4.553-3.018 7.286v24.581h22.595"/>
    <path fill="#000" d="M67.68 40.752c.115.6.032 1.22-.236 1.768-.25.444-.624.806-1.078 1.04-.594.294-1.217.527-1.858.697-.088.02-.168.04-.246.064-.077.024-.158.047-.242.064l-.216-.902c.077-.03.156-.055.236-.074l.222-.057c.53-.127 1.049-.294 1.552-.502.345-.147.637-.395.839-.71.21-.39.278-.84.195-1.274l-.576-4.135.849-.128.559 4.149zM63.918 31.334l.357 9.347-.845.044-.36-9.35.848-.041zM61.834 42.75l-.818.818-.805-.818.805-.805.818.805zM59.468 42.75l-.819.818-.804-.818.804-.805.819.805zM53.838 29.668l.215.603-3.488 1.262-.232-.602 3.505-1.263z"/>
    <path fill="#000" d="M54.017 39.343c0 .037 0 .07-.028.104-.093.286-.264.54-.494.734-.163.17-.362.303-.583.387-.246.089-.506.132-.768.128h-4.04c-.478.024-.956-.065-1.394-.259-.339-.176-.6-.473-.73-.832-.18-.522-.272-1.07-.273-1.623l-.26-6.606.85-.027.258 6.633c-.003.044-.003.088 0 .132v.114c-.002.329.052.656.159.967.039.1.099.191.175.267.077.076.168.135.269.174.3.098.617.142.933.128h4.063c.115 0 .228-.017.337-.05.1-.029.195-.074.28-.136.157-.099.282-.241.36-.41.077-.167.112-.35.101-.532-.01-.187-.07-.367-.172-.522l-3.198-4.522.185-.704 5.198-1.91.3.876-4.603 1.684 2.785 4 .057.1.242.358c.078.118.155.225.23.337.22.31.47.596.747.855.199.184.426.334.673.444.227.094.47.14.714.138h3.273c.346.01.69-.054 1.01-.185.137-.059.26-.146.363-.255.103-.108.182-.237.233-.378.115-.39.106-.807-.027-1.192l-.562-2.141.821-.23.573 2.183c.192.564.192 1.176 0 1.74-.178.45-.511.822-.94 1.048-.451.23-.952.345-1.458.336h-3.272c-.349.005-.694-.069-1.01-.215-.338-.164-.644-.385-.906-.653-.166-.154-.323-.316-.471-.485zM40.987 35.914l.906.92-.906.905-.906-.906.906-.919z"/>
    <path fill="#000" d="M44.05 41.97c.2-.405.255-.866.159-1.307-.05-.363-.242-1.676-.576-3.936l.832-.145c.327 2.222.52 3.535.575 3.936.122.609.054 1.24-.195 1.809-.218.445-.572.81-1.01 1.043-.559.276-1.147.485-1.754.623l-.185.037-.189.05c-1.217.286-2.227.183-3.03-.309-.41-.263-.755-.613-1.014-1.025-.258-.412-.422-.876-.481-1.359-.175-1.28-.02-2.582.451-3.785l.822.317c-.402.997-.562 2.074-.468 3.145.024.377.136.744.326 1.07.19.327.455.605.771.812.613.373 1.422.445 2.428.216l.158-.037.158-.038c.486-.102.962-.249 1.421-.437.333-.136.614-.374.801-.68z"/>
</svg>
