<svg xmlns="http://www.w3.org/2000/svg" width="31" height="31" fill="none" viewBox="0 0 31 31">
    <g clip-path="url(#clip0)">
        <path fill="#FFC107" d="M28.42 7.75c-1.426 0-2.583 1.156-2.583 2.583 0 .271.044.54.13.797l-2.096 1.332c-1.38.88-3.199.588-4.235-.678l-2.054-2.512c.327-.44.504-.974.504-1.522 0-1.427-1.157-2.584-2.584-2.584s-2.584 1.157-2.584 2.584c0 .548.177 1.082.504 1.522l-2.054 2.512c-1.036 1.265-2.854 1.557-4.233.678L5.038 11.13c.085-.257.129-.526.13-.797 0-1.427-1.157-2.583-2.584-2.584C1.157 7.75 0 8.906 0 10.333c0 1.34 1.023 2.457 2.358 2.574l1.527 9.159c.051.312.32.54.636.54h21.962c.316 0 .585-.229.637-.54l1.527-9.16c1.421-.127 2.47-1.382 2.343-2.803-.12-1.33-1.233-2.35-2.57-2.353z"/>
        <path fill="#FFA000" d="M15.502 25.188c6.065 0 10.981-1.446 10.981-3.23s-4.916-3.23-10.98-3.23c-6.065 0-10.982 1.446-10.982 3.23s4.917 3.23 10.981 3.23z"/>
        <path fill="#FFD54F" d="M15.502 25.835c-5.778 0-11.627-1.33-11.627-3.875s5.849-3.876 11.627-3.876c5.779 0 11.627 1.33 11.627 3.876 0 2.544-5.848 3.875-11.627 3.875zm0-6.46c-6.785 0-10.335 1.68-10.335 2.585 0 .904 3.55 2.583 10.335 2.583 6.785 0 10.335-1.68 10.335-2.583 0-.905-3.55-2.584-10.335-2.584z"/>
    </g>
    <defs>
        <clipPath id="clip0">
            <path fill="#fff" d="M0 0H31V31H0z"/>
        </clipPath>
    </defs>
</svg>
